<svg xmlns="http://www.w3.org/2000/svg" width="16" height="16" viewBox="0 0 16 16"><path fill="currentColor" fill-rule="evenodd" d="M6 1v4.48c0 .168 0 .338-.023.51q-.032.227-.103.444c-.055.165-.13.317-.204.47l-1.52 3.09h7.7l-1.5-3.06l-.018-.036c-.074-.152-.15-.304-.204-.469a2.5 2.5 0 0 1-.103-.444c-.023-.172-.023-.342-.023-.511V.994h-4zm6.35 10H3.66l-.974 1.98c-.29.59-.476.972-.588 1.26c-.09.233-.093.32-.094.332a.5.5 0 0 0 .205.329c.012.005.091.04.34.062c.311.029.736.03 1.39.03h8.12c.658 0 1.08-.001 1.39-.03c.25-.022.33-.057.34-.062a.5.5 0 0 0 .205-.33v.003v-.002l.001-.004v.004c0-.013-.005-.1-.094-.332c-.112-.292-.298-.673-.588-1.26L12.339 11zm-1.34-5.56V1h.499a.5.5 0 0 0 0-1h-7a.5.5 0 0 0 0 1h.495v4.44c0 .208 0 .312-.014.413q-.018.136-.062.266a3 3 0 0 1-.17.377l-2.97 6.04c-.563 1.15-.844 1.72-.772 2.18c.062.406.29.769.626 1c.387.269 1.03.269 2.3.269h8.12c1.28 0 1.92 0 2.3-.269c.338-.235.564-.598.626-1c.071-.465-.21-1.04-.774-2.18l-2.97-6.04c-.092-.187-.138-.28-.17-.378a1.5 1.5 0 0 1-.062-.266c-.014-.102-.014-.206-.014-.414z" clip-rule="evenodd"/></svg>